{"title":"Whiteout.TS.XVID-IMAGiNE [NORARS]","uid":5106015,"size":1041262059,"categoryP":"video","categoryS":"movies","magnet":"?xt=urn:btih:f76a72be56c314efaa237ff85ccabd5365879d9b&amp;dn=Whiteout.TS.XVID-IMAGiNE+%5BNORARS%5D&amp;tr=udp%3A%2F%2Ftracker.openbittorrent.com%3A80&amp;tr=udp%3A%2F%2Fopen.demonii.com%3A1337&amp;tr=udp%3A%2F%2Ftracker.coppersurfer.tk%3A6969&amp;tr=udp%3A%2F%2Fexodus.desync.com%3A6969","seeders":0,"leechers":1,"uploader":".BONE.","files":3,"time":1254364083,"description":"::::::::::: ::::    ::::      :::      :::::::: ::::::::::: ::::    ::: :::::::::: \n                      :+:     +:+:+: :+:+:+   :+: :+:   :+:    :+:    :+:     :+:+:   :+: :+:        \n                      +:+     +:+ +:+:+ +:+  +:+   +:+  +:+           +:+     :+:+:+  +:+ +:+        \n                      +#+     +#+  +:+  +#+ +#++:++#++: :#:           +#+     +#+ +:+ +#+ +#++:++#   \n                      +#+     +#+       +#+ +#+     +#+ +#+   +#+#    +#+     +#+  +#+#+# +#+        \n                      #+#     #+#       #+# #+#     #+# #+#    #+#    #+#     #+#   #+#+# #+#        \n                  ########### ###       ### ###     ###  ######## ########### ###    #### ##########   \n                                                \n\n\n\n                                         Another Fine Release Brought to you from -Imagine                   \n            \n    \n********************************************************************************************************************                                \n                                               WHITEOUT.TS.XVID-IMAGINE\n********************************************************************************************************************\n\n                              Ripper ...........: Imagine         Video Codec ......: XviD\n                              Release Date .....: 29/9/2009       Video Bitrate ....: 1446 kbps\n                              Theater Date .....: 11/9/2009       Resolution .......: 720 x 352\n                              Audio Codec ......: MP3             Audio Bitrate ....: 128kbps\n                              IMDb URL..........: http://www.imdb.com/title/tt0365929/\n                              IMDB Rating ......: 5.6/10   1,124 votes \n\n\n\n[color=yellow]DETAILS[/color]\n\nVideo\nID                               : 0\nFormat                           : MPEG-4 Visual\nFormat profile                   : AdvancedSimple@L5\nFormat settings, BVOP            : Yes\nFormat settings, QPel            : No\nFormat settings, GMC             : No warppoints\nFormat settings, Matrix          : Custom\nCodec ID                         : XVID\nCodec ID/Hint                    : XviD\nDuration                         : 1h 32mn\nBit rate                         : 1 340 Kbps\nWidth                            : 720 pixels\nHeight                           : 352 pixels\nDisplay aspect ratio             : 2.045\nFrame rate                       : 25.000 fps\nResolution                       : 24 bits\nColorimetry                      : 4:2:0\nScan type                        : Progressive\nBits/(Pixel*Frame)               : 0.212\nStream size                      : 888 MiB (90%)\nWriting library                  : XviD 1.2.1 (UTC 2008-12-04)\n\nAudio\nID                               : 1\nFormat                           : MPEG Audio\nFormat version                   : Version 1\nFormat profile                   : Layer 3\nCodec ID                         : 55\nCodec ID/Hint                    : MP3\nDuration                         : 1h 32mn\nBit rate mode                    : Constant\nBit rate                         : 128 Kbps\nChannel(s)                       : 2 channels\nSampling rate                    : 44.1 KHz\nResolution                       : 16 bits\nStream size                      : 84.8 MiB (9%)\nAlignment                        : Aligned on interleaves\nInterleave, duration             : 40 ms (1.00 video frame)\nInterleave, preload duration     : 391 ms\n\n\n\n[color=yellow]NOTES:[/color]\n\n\n\nIMAGiNE bringing you many new releases.......\n\nThe audio and video have both been filtered to improve the quality.\n\nIts not the greatest video , but its the best available. The audio is decent and hopefully we\n\nwill have a steady supply of line sound.\n\n\n\n\n\n\n\n[color=yellow]GREETS:[/color]\n\n\n\nFLAWL3SS,ViSiON,DEViSE,FUSiON,STG,SecretMyth,Lynks\n\nAnd to all the other p2p grps past and present\n\n\n\n\n\n[color=red]Have anything to offer????......Contact us &lt;a class=&quot;__cf_email__&quot; href=&quot;/cdn-cgi/l/email-protection&quot; data-cfemail=&quot;036a6e62646a6d6664716c7673436b76706b6e626a6f2d606c6e&quot;&gt;[email&amp;#160;protected]&lt;/a&gt;&lt;script cf-hash='f9e31' type=&quot;text/javascript&quot;&gt;\n/* &lt;![CDATA[ */!function(){try{var t=&quot;currentScript&quot;in document?document.currentScript:function(){for(var t=document.getElementsByTagName(&quot;script&quot;),e=t.length;e--;)if(t[e].getAttribute(&quot;cf-hash&quot;))return t[e]}();if(t&amp;&amp;t.previousSibling){var e,r,n,i,c=t.previousSibling,a=c.getAttribute(&quot;data-cfemail&quot;);if(a){for(e=&quot;&quot;,r=parseInt(a.substr(0,2),16),n=2;a.length-n;n+=2)i=parseInt(a.substr(n,2),16)^r,e+=String.fromCharCode(i);e=document.createTextNode(e),c.parentNode.replaceChild(e,c)}}}catch(u){}}();/* ]]&gt; */&lt;/script&gt;[/color]\n\n\n[img]http://lookpic.com/i/87/fSBwz025.png[/img]\n[img]http://lookpic.com/i/769/ZvB6wRJn.png[/img]\n[img]http://lookpic.com/i/999/L7wRceiy.png[/img]\n[img]http://lookpic.com/i/465/8qxrGzDs.png[/img]\n","torrent":{"xt":"urn:btih:f76a72be56c314efaa237ff85ccabd5365879d9b","amp;dn":"Whiteout.TS.XVID-IMAGiNE+%5BNORARS%5D","amp;tr":["udp%3A%2F%2Ftracker.openbittorrent.com%3A80","udp%3A%2F%2Fopen.demonii.com%3A1337","udp%3A%2F%2Ftracker.coppersurfer.tk%3A6969","udp%3A%2F%2Fexodus.desync.com%3A6969"],"infoHash":"f76a72be56c314efaa237ff85ccabd5365879d9b","infoHashBuffer":{"type":"Buffer","data":[247,106,114,190,86,195,20,239,170,35,127,248,92,202,189,83,101,135,157,155]},"announce":[],"urlList":[]}}